<?xml version="1.0" encoding="iso-8859-1"?>
<!-- Uploaded to: SVG Repo, www.svgrepo.com, Generator: SVG Repo Mixer Tools -->
<svg height="800px" width="800px" version="1.1" id="Layer_1" xmlns="http://www.w3.org/2000/svg" xmlns:xlink="http://www.w3.org/1999/xlink" 
	 viewBox="0 0 392.611 392.611" xml:space="preserve">
<path style="fill:#FFFFFF;" d="M192.594,292.532c0-55.079,44.735-99.814,99.749-100.008l-12.735-75.895h-32.711v54.562
	c0,6.012-4.848,10.925-10.925,10.925c-6.012,0-10.925-4.848-10.925-10.925v-54.562H123.358v54.562
	c0,6.012-4.848,10.925-10.925,10.925c-6.077,0-10.925-4.848-10.925-10.925v-54.562H68.796l-46.61,228.784
	c-1.164,5.495,0.323,11.055,4.073,15.709c4.978,6.012,12.994,9.568,21.721,9.568h182.368
	C207.398,352.394,192.594,324.144,192.594,292.532z"/>
<path style="fill:#FFC10D;" d="M370.76,292.532c0-43.119-35.103-78.222-78.222-78.222s-78.222,35.103-78.222,78.222
	s35.103,78.222,78.222,78.222C335.657,370.754,370.76,335.651,370.76,292.532z"/>
<path style="fill:#56ACE0;" d="M273.144,194.528l-11.442-56.048h-14.869v32.776c0,6.012-4.848,10.925-10.925,10.925
	c-6.012,0-10.925-4.848-10.925-10.925v-32.776H123.358v32.776c0,6.012-4.848,10.925-10.925,10.925
	c-6.077,0-10.925-4.848-10.925-10.925v-32.776H86.704L67.439,232.54h46.287c6.012,0,10.925,4.848,10.925,10.925
	c0,6.012-4.848,10.925-10.925,10.925H63.043l-6.206,30.384h24.242c6.012,0,10.925,4.849,10.925,10.925
	c0,6.012-4.848,10.925-10.925,10.925H52.376l-8.469,41.503c0.776,0.453,2.069,1.034,4.073,1.034h162.133
	c-11.055-16.097-17.519-35.491-17.519-56.436C192.594,244.047,227.245,203.513,273.144,194.528z"/>
<g>
	<path style="fill:#194F82;" d="M290.017,262.342h25.729c6.012,0,10.925-4.848,10.925-10.925s-4.848-10.925-10.925-10.925h-12.218
		v-5.172c0-6.012-4.848-10.925-10.925-10.925c-6.077,0-10.925,4.848-10.925,10.925v6.335c-13.317,3.62-23.079,15.838-23.079,30.319
		c0,17.39,14.158,31.418,31.547,31.418h5.107c5.301,0,9.632,4.331,9.632,9.632c0,5.301-4.331,9.632-9.632,9.632h-25.729
		c-6.012,0-10.925,4.848-10.925,10.925c0,6.012,4.848,10.925,10.925,10.925h12.218v5.172c0,6.012,4.848,10.925,10.925,10.925
		c6.077,0,10.925-4.848,10.925-10.925v-6.335c13.317-3.62,23.208-15.838,23.208-30.319c0-17.39-14.158-31.418-31.547-31.418h-5.107
		c-5.301,0-9.632-4.331-9.632-9.632C280.32,266.673,284.651,262.342,290.017,262.342z"/>
	<path style="fill:#194F82;" d="M314.841,195.174l-15.709-91.539c-1.034-5.107-5.495-8.727-10.667-8.727h-41.568V72.669
		c0-40.081-32.582-72.663-72.663-72.663s-72.663,32.582-72.663,72.663v22.174H59.94c-5.172,0-9.632,3.62-10.667,8.727L0.788,341.081
		c-2.392,11.83,0.711,24.178,8.598,33.875c9.18,11.184,23.273,17.648,38.659,17.648h244.558l0,0
		c55.143,0,100.008-44.865,100.008-100.008C392.546,245.081,359.253,205.323,314.841,195.174z M123.358,72.669
		c0-28.057,22.82-50.877,50.877-50.877s50.877,22.82,50.877,50.877v22.174H123.358V72.669z M47.98,370.754
		c-8.663,0-16.743-3.556-21.721-9.568c-3.814-4.655-5.236-10.214-4.073-15.709l46.675-228.719h32.711v54.562
		c0,6.012,4.848,10.925,10.925,10.925c6.077,0,10.925-4.848,10.925-10.925v-54.626h101.689v54.562
		c0,6.012,4.848,10.925,10.925,10.925c6.012,0,10.925-4.848,10.925-10.925v-54.562h32.711l12.735,75.895
		c-55.014,0.129-99.749,44.865-99.749,100.008c0,31.677,14.869,59.863,37.883,78.222H47.98V370.754z M292.538,370.754
		c-43.119,0-78.222-35.103-78.222-78.222s35.103-78.222,78.222-78.222s78.222,35.103,78.222,78.222S335.657,370.754,292.538,370.754
		z"/>
</g>
</svg>